<svg width="24" height="24" fill="none" xmlns="http://www.w3.org/2000/svg"><path d="M17.5 7.63V5c0-2-1-3-3-3h-5c-2 0-3 1-3 3v2.56" stroke="#C6AAFF" stroke-width="1.5" stroke-linecap="round" stroke-linejoin="round"/><path d="M4 11.019v4.968c0 1.82 0 1.82 1.778 2.98l4.889 2.729c.733.41 1.933.41 2.666 0l4.89-2.73C20 17.806 20 17.806 20 15.987V11.02c0-1.82 0-1.82-1.778-2.98L13.333 5.31c-.733-.41-1.933-.41-2.666 0l-4.89 2.73C4 9.2 4 9.2 4 11.019Z" fill="#F3EDFF" stroke="#8447FF" stroke-width="1.5" stroke-linecap="round" stroke-linejoin="round"/><path d="m12.581 10.387.522.852a.8.8 0 0 0 .402.306l.934.248c.577.153.732.67.357 1.148l-.613.775a.885.885 0 0 0-.156.497l.055 1.004c.037.622-.384.938-.933.708l-.897-.373a.757.757 0 0 0-.504 0l-.897.373c-.549.23-.97-.096-.933-.708l.055-1.004a.862.862 0 0 0-.156-.497l-.613-.775c-.375-.478-.22-.995.357-1.148l.934-.248a.777.777 0 0 0 .402-.306l.522-.852c.33-.516.842-.516 1.162 0Z" fill="#C6AAFF"/></svg>