<svg width="154" height="48" viewBox="0 0 154 48" fill="none" xmlns="http://www.w3.org/2000/svg">
<path d="M73.1487 15.6254C73.1487 14.9222 73.7163 14.3527 74.4173 14.3527C75.1182 14.3527 75.6855 14.9222 75.6855 15.6254C75.6855 16.3287 75.1182 16.8982 74.4173 16.8982C73.7163 16.8982 73.1487 16.3287 73.1487 15.6254Z" fill="#56369B"/>
<path d="M95.3915 16.9569H97.6021V32.408H95.3915V16.9569Z" fill="#56369B"/>
<path d="M87.5619 30.3368H91.9633V32.408H77.6231C76.3483 32.408 75.2068 31.8991 74.4202 31.0843C73.6302 31.8991 72.4887 32.408 71.2139 32.408H34.7611V15.3071H36.9709V30.3368H71.2139C72.4542 30.3368 73.3132 29.4808 73.3132 28.4215V20.2067H75.5238V28.4215C75.5238 29.4808 76.3832 30.3368 77.6231 30.3368H83.192C81.8342 29.955 80.7497 28.8638 80.7497 26.0988C80.7497 19.1824 87.2954 19.437 90.8125 20.6526V23.0351C88.2912 22.0042 83.049 21.0499 83.049 26.0988C83.049 27.4065 83.4551 28.4378 84.2637 29.1978C85.0755 29.9581 86.1693 30.3368 87.5619 30.3368Z" fill="#56369B"/>
<path d="M99.1943 14.291V15.4871H93.8029V14.291H94.6341C94.2691 13.954 94.0916 13.435 94.0916 12.7131C94.0916 11.9877 94.3679 11.4245 94.91 11.0365C95.9023 10.3267 97.5072 10.406 98.579 10.7784L98.6615 10.804V12.1689L98.4961 12.102C97.6149 11.7393 96.3432 11.6056 95.7473 12.0099C95.5059 12.1689 95.3916 12.401 95.3916 12.7131C95.3916 14.272 97.2786 14.291 97.358 14.291H99.1943Z" fill="#56369B"/>
<path d="M24.4287 36.0699C24.4287 36.8617 23.7882 37.5012 23.002 37.5012C22.2119 37.5012 21.5749 36.8617 21.5749 36.0699C21.5749 35.2807 22.2119 34.6378 23.002 34.6378C23.7882 34.6378 24.4287 35.2807 24.4287 36.0699Z" fill="#56369B"/>
<path d="M31.2786 20.2068V32.408H16.0759C14.0052 32.408 12.353 31.8354 11.1193 30.6902C9.88247 29.5477 9.26405 28.0141 9.26405 26.0992C9.26405 24.1932 9.88247 22.6628 11.1193 21.5176C12.353 20.3658 14.0052 19.7963 16.0759 19.7963V21.855C14.6841 21.855 13.5899 22.2363 12.7777 22.9971C11.969 23.7606 11.5633 24.7946 11.5633 26.0992C11.5633 27.4065 11.969 28.4375 12.7777 29.1978C13.5899 29.9582 14.6841 30.3368 16.0759 30.3368H29.0684V20.2068H31.2786Z" fill="#56369B"/>
<path d="M121.573 30.6775C124.024 30.6775 126.01 32.6705 126.01 35.1293C126.01 37.5877 124.024 39.5807 121.573 39.5807C119.123 39.5807 117.136 37.5877 117.136 35.1293C117.136 32.6705 119.123 30.6775 121.573 30.6775Z" fill="#56369B"/>
<path d="M121.573 19.5484C124.024 19.5484 126.01 21.5415 126.01 23.9998C126.01 26.4586 124.024 28.4516 121.573 28.4516C119.123 28.4516 117.136 26.4586 117.136 23.9998C117.136 21.5415 119.123 19.5484 121.573 19.5484Z" fill="#56369B"/>
<path d="M130.448 25.1132C132.898 25.1132 134.885 27.1062 134.885 29.5642C134.885 32.0234 132.898 34.0164 130.448 34.0164C127.998 34.0164 126.01 32.0234 126.01 29.5642C126.01 27.1062 127.998 25.1132 130.448 25.1132Z" fill="#56369B"/>
<path d="M130.448 13.984C132.898 13.984 134.885 15.9771 134.885 18.4355C134.885 20.8938 132.898 22.8873 130.448 22.8873C127.998 22.8873 126.01 20.8938 126.01 18.4355C126.01 15.9771 127.998 13.984 130.448 13.984Z" fill="#56369B"/>
<path d="M121.573 8.41928C124.024 8.41928 126.01 10.4123 126.01 12.8707C126.01 15.3295 124.024 17.3225 121.573 17.3225C119.123 17.3225 117.136 15.3295 117.136 12.8707C117.136 10.4123 119.123 8.41928 121.573 8.41928Z" fill="#56369B"/>
<path d="M140.299 19.5492C142.75 19.5492 144.736 21.5414 144.736 24.0006C144.736 26.4582 142.75 28.4524 140.299 28.4524C137.262 28.4524 135.686 25.365 133.776 24.0006C135.686 22.6342 137.262 19.5492 140.299 19.5492Z" fill="#56369B"/>
</svg>
