<svg width="40" height="41" fill="none" xmlns="http://www.w3.org/2000/svg"><path d="M12.172 26.064a3.71 3.71 0 1 1 0 7.42 3.71 3.71 0 0 1 0-7.42ZM12.172 16.79a3.71 3.71 0 1 1 0 7.42 3.71 3.71 0 0 1 0-7.42ZM19.591 21.427a3.71 3.71 0 1 1 0 7.42 3.71 3.71 0 0 1 0-7.42ZM19.591 12.153a3.71 3.71 0 1 1 0 7.42 3.71 3.71 0 0 1 0-7.42ZM12.172 7.516a3.71 3.71 0 1 1 0 7.419 3.71 3.71 0 0 1 0-7.42ZM27.827 16.79a3.709 3.709 0 1 1 0 7.42c-2.539 0-3.856-2.573-5.453-3.71 1.597-1.139 2.914-3.71 5.453-3.71Z" fill="#56369B"/></svg>