<svg width="24" height="24" fill="none" xmlns="http://www.w3.org/2000/svg"><path d="M6.01 13.08 6 17.815c0 1.282.922 2.655 2.05 3.059l3 1.07c.517.181 1.373.181 1.9 0l3-1.07c1.128-.404 2.05-1.777 2.05-3.06v-4.683M21 15V9" stroke="#C6AAFF" stroke-width="1.5" stroke-linecap="round" stroke-linejoin="round"/><path d="M10.136 2.521 4.383 6.38c-1.844 1.236-1.844 4.004 0 5.241l5.753 3.857c1.032.697 2.732.697 3.764 0l5.724-3.857c1.835-1.237 1.835-3.995 0-5.231L13.9 2.53c-1.032-.706-2.732-.706-3.764-.01Z" fill="#F3EDFF" stroke="#8447FF" stroke-width="1.5" stroke-linecap="round" stroke-linejoin="round"/></svg>